<svg width="720" height="720" viewBox="0 0 720 720" xmlns="http://www.w3.org/2000/svg"><rect width="720" height="720" fill="#98b3f3"/><path d="M 0,720 C 0,720 0,120 0,120 C 37.18262150220913,97.32345360824742 74.36524300441826,74.64690721649484 103,82 C 131.63475699558174,89.35309278350516 151.72164948453604,126.73582474226802 179,142 C 206.27835051546396,157.26417525773198 240.74815905743742,150.409793814433 275,138 C 309.2518409425626,125.590206185567 343.28571428571433,107.625 374,113 C 404.71428571428567,118.375 432.10898379970536,147.090206185567 461,151 C 489.89101620029464,154.909793814433 520.2783505154639,134.01417525773195 552,134 C 583.7216494845361,133.98582474226805 616.7776141384388,154.85309278350516 645,156 C 673.2223858615612,157.14690721649484 696.6111929307806,138.5734536082474 720,120 C 720,120 720,720 720,720 Z" fill="#6e6b70" opacity="0.09999999999999999"/><path d="M 0,720 C 0,720 0,240 0,240 C 27.219256259204712,227.9471649484536 54.438512518409425,215.8943298969072 80,212 C 105.56148748159058,208.1056701030928 129.46520618556698,212.36984536082477 166,216 C 202.53479381443302,219.63015463917523 251.70066273932252,222.6262886597938 281,227 C 310.2993372606775,231.3737113402062 319.7321428571428,237.12500000000006 345,247 C 370.2678571428572,256.87499999999994 411.3707658321061,270.8737113402061 441,262 C 470.6292341678939,253.12628865979386 488.7847938144329,221.38015463917526 523,216 C 557.2152061855671,210.61984536082474 607.4900589101621,231.6056701030928 643,240 C 678.5099410898379,248.3943298969072 699.2549705449189,244.1971649484536 720,240 C 720,240 720,720 720,720 Z" fill="#6e6b70" opacity="0.19999999999999998"/><path d="M 0,720 C 0,720 0,360 0,360 C 29.189801178203247,339.8063328424153 58.379602356406494,319.61266568483063 86,317 C 113.6203976435935,314.38733431516937 139.6713917525773,329.3556701030928 167,348 C 194.3286082474227,366.6443298969072 222.9348306332842,388.96465390279826 257,395 C 291.0651693667158,401.03534609720174 330.5892857142857,390.7857142857143 362,372 C 393.4107142857143,353.2142857142857 416.7080265095729,325.8924889543446 442,332 C 467.2919734904271,338.1075110456554 494.5786082474227,377.6443298969072 529,388 C 563.4213917525773,398.3556701030928 604.9775405007363,379.5301914580265 638,370 C 671.0224594992637,360.4698085419735 695.5112297496319,360.23490427098676 720,360 C 720,360 720,720 720,720 Z" fill="#6e6b70" opacity="0.3"/><path d="M 0,720 C 0,720 0,480 0,480 C 36.23637702503682,465.41181885125184 72.47275405007365,450.8236377025037 100,441 C 127.52724594992635,431.1763622974963 146.34536082474224,426.11726804123714 173,436 C 199.65463917525776,445.88273195876286 234.1458026509573,470.7072901325479 265,482 C 295.8541973490427,493.2927098674521 323.0714285714286,491.0535714285714 352,480 C 380.9285714285714,468.9464285714286 411.5684830633284,449.0784241531664 444,456 C 476.4315169366716,462.9215758468336 510.65463917525767,496.63273195876286 545,507 C 579.3453608247423,517.3672680412371 613.8129602356407,504.39064801178205 643,496 C 672.1870397643593,487.60935198821795 696.0935198821796,483.80467599410895 720,480 C 720,480 720,720 720,720 Z" fill="#6e6b70" opacity="0.39999999999999997"/><path d="M 0,720 C 0,720 0,600 0,600 C 32.84259941089839,590.2877393225331 65.68519882179677,580.5754786450663 96,575 C 126.31480117820323,569.4245213549337 154.10180412371133,567.985824742268 180,565 C 205.89819587628867,562.014175257732 229.90758468335787,557.4812223858615 256,571 C 282.09241531664213,584.5187776141385 310.2678571428571,616.0892857142857 345,617 C 379.7321428571429,617.9107142857143 421.0209867452136,588.1616347569956 451,570 C 480.9790132547864,551.8383652430044 499.6481958762886,545.264175257732 532,559 C 564.3518041237114,572.735824742268 610.3862297496319,606.7816642120766 644,617 C 677.6137702503681,627.2183357879234 698.8068851251841,613.6091678939617 720,600 C 720,600 720,720 720,720 Z" fill="#6e6b70" opacity="0.49999999999999994"/></svg>